HIERARCHY
ROOT Hips
{
	OFFSET 0.00000 0.00000 0.00000
	CHANNELS 6 Xposition Yposition Zposition Zrotation Yrotation Xrotation 
	JOINT LHipJoint
	{
		OFFSET 0 0 0
		CHANNELS 3 Zrotation Yrotation Xrotation
		JOINT LeftHip
		{
			OFFSET 1.92384 -1.64427 0.83032
			CHANNELS 3 Zrotation Yrotation Xrotation
			JOINT LeftKnee
			{
				OFFSET 2.52872 -6.94761 0.00000
				CHANNELS 3 Zrotation Yrotation Xrotation
				JOINT LeftAnkle
				{
					OFFSET 2.51827 -6.91890 0.00000
					CHANNELS 3 Zrotation Yrotation Xrotation
					JOINT LeftToe
					{
						OFFSET 0.22757 -0.62524 2.06528
						CHANNELS 3 Zrotation Yrotation Xrotation
						End Site
						{
							OFFSET 0.00000 -0.00000 1.08218
						}
					}
				}
			}
		}
	}
	JOINT RHipJoint
	{
		OFFSET 0 0 0
		CHANNELS 3 Zrotation Yrotation Xrotation
		JOINT RightHip
		{
			OFFSET -2.09517 -1.64427 0.83032
			CHANNELS 3 Zrotation Yrotation Xrotation
			JOINT RightKnee
			{
				OFFSET -2.55173 -7.01082 0.00000
				CHANNELS 3 Zrotation Yrotation Xrotation
				JOINT RightAnkle
				{
					OFFSET -2.50265 -6.87598 0.00000
					CHANNELS 3 Zrotation Yrotation Xrotation
					JOINT RightToe
					{
						OFFSET -0.22612 -0.62126 1.98677
						CHANNELS 3 Zrotation Yrotation Xrotation
						End Site
						{
							OFFSET -0.00000 -0.00000 1.04433
						}
					}
				}
			}
		}
	}
	JOINT lowerback
	{
		OFFSET 0 0 0
		CHANNELS 3 Zrotation Yrotation Xrotation
		JOINT Chest
		{
			OFFSET 0.02839 1.68926 0.31690
			CHANNELS 3 Zrotation Yrotation Xrotation
			JOINT Chest2
			{
				OFFSET -0.01522 1.70183 0.21192
				CHANNELS 3 Zrotation Yrotation Xrotation
				JOINT lowerneck
				{
					OFFSET 0 0 0
					CHANNELS 3 Zrotation Yrotation Xrotation
					JOINT Neck
					{
						OFFSET -0.04523 1.88988 0.10630
						CHANNELS 3 Zrotation Yrotation Xrotation
						JOINT Head
						{
							OFFSET 0.05172 1.78070 -0.56858
							CHANNELS 3 Zrotation Yrotation Xrotation
							End Site
							{
								OFFSET 0.01532 1.90392 -0.20434
							}
						}
					}
				}
				JOINT LeftCollar
				{
					OFFSET 0 0 0
					CHANNELS 3 Zrotation Yrotation Xrotation
					JOINT LeftShoulder
					{
						OFFSET 3.25522 0.75486 0.22086
CHANNELS 3 Zrotation Xrotation Yrotation
						JOINT LeftElbow
						{
OFFSET 0 -4.856450 0.000000
CHANNELS 3 Zrotation Xrotation Yrotation
							JOINT LeftWrist
							{
OFFSET 0 -2.798740 0.000000
CHANNELS 3 Zrotation Xrotation Yrotation
								JOINT lhand
								{
									OFFSET 0 0 0
CHANNELS 3 Zrotation Xrotation Yrotation
									JOINT LFingers
									{
OFFSET 0 -0.573400 0.000000
CHANNELS 3 Zrotation Xrotation Yrotation
										End Site
										{
OFFSET 0 -0.462290 0.000000
										}
									}
								}
								JOINT LThumb
								{
OFFSET 0 0.000000 0.000000
CHANNELS 3 Zrotation Xrotation Yrotation
									End Site
									{
OFFSET 0 -0.469350 0.469350
									}
								}
							}
						}
					}
				}
				JOINT RightCollar
				{
					OFFSET 0 0 0
					CHANNELS 3 Zrotation Yrotation Xrotation
					JOINT RightShoulder
					{
						OFFSET -3.29079 0.52751 0.36356
CHANNELS 3 Zrotation Xrotation Yrotation
						JOINT RightElbow
						{
OFFSET 0 -4.670180 0.000000
CHANNELS 3 Zrotation Xrotation Yrotation
							JOINT RightWrist
							{
OFFSET 0 -2.655340 0.000000
CHANNELS 3 Zrotation Xrotation Yrotation
								JOINT rhand
								{
									OFFSET 0 0 0
CHANNELS 3 Zrotation Xrotation Yrotation
									JOINT RFingers
									{
OFFSET 0 -0.594070 0.000000
CHANNELS 3 Zrotation Xrotation Yrotation
										End Site
										{
OFFSET 0 -0.478950 0.000000
										}
									}
								}
								JOINT RThumb
								{
OFFSET 0 0.000000 0.000000
CHANNELS 3 Zrotation Xrotation Yrotation
									End Site
									{
OFFSET 0 -0.486270 0.486270
									}
								}
							}
						}
					}
				}
			}
		}
	}
}
MOTION
Frames: 10
Frame Time: 0.008333333333333333
11.742340 16.934597 0.188931 713.016174 -68.413902 -680.419621 0.000000 0.000000 0.000000 -23.736749 -17.203428 -53.210195 2.945200 10.605820 30.961653 -1.354262 22.310131 -19.018364 0.034373 1.196179 3.288807 0.000000 0.000000 0.000000 24.828663 3.989411 -39.813835 -6.373629 -14.778501 46.459071 0.664294 -20.178660 -22.697861 -0.004807 0.447567 -1.229793 5.562501 6.855007 -19.615765 -9.258010 6.851590 -17.605679 -12.440144 1.817903 -6.858416 6.594777 2.064517 -10.566224 1.379357 -2.294737 50.987013 -1.397755 -0.218652 24.120526 0.000000 0.000000 0.000000 17.926455 22.439910 -35.029592 16.760928 -26.541406 3.979998 10.315909 6.184869 -29.309916 0.000000 0.000000 0.000000 -7.125000 0.000000 0.000000 -23.027563 58.172173 7.685334 0.000000 0.000000 0.000000 7.573910 22.599841 10.253734 -22.867443 -33.943473 -7.064147 -11.950305 10.825595 10.472572 0.000000 0.000000 0.000000 7.125000 0.000000 0.000000 13.242931 40.324863 1.557661
11.206016 16.944082 0.652493 715.724441 -61.567778 -683.986407 0.000000 0.000000 0.000000 -25.387238 -18.341781 -47.918606 2.770935 10.314677 30.001889 -0.670451 18.480734 -19.357491 0.000337 0.112630 0.309359 0.000000 0.000000 0.000000 21.514016 2.808234 -46.545735 -10.436263 -17.647393 60.935999 1.418730 -20.519797 -7.381132 -0.955226 -6.222261 17.431031 3.637057 5.669734 -19.449963 -8.184769 5.671385 -17.543595 -10.297721 1.506272 -7.390719 6.158249 1.863754 -10.628712 0.713963 -1.689862 50.389066 -1.501970 -0.066940 23.478421 0.000000 0.000000 0.000000 17.253592 21.777982 -40.043887 18.233637 -28.455197 4.660056 7.677906 4.208320 -28.373065 0.000000 0.000000 0.000000 -7.125000 0.000000 0.000000 -24.985946 56.766024 7.529010 0.000000 0.000000 0.000000 6.923764 24.291764 7.185812 -21.406037 -32.299116 -6.265566 -11.996458 11.162249 10.715711 0.000000 0.000000 0.000000 7.125000 0.000000 0.000000 13.260221 40.569976 1.478009
10.723242 16.919593 1.063765 715.588937 -52.296221 -684.001025 0.000000 0.000000 0.000000 -23.757551 -20.809345 -44.994013 3.015935 10.720832 31.344168 0.054183 14.023271 -20.527570 0.008349 -0.587501 -1.614400 0.000000 0.000000 0.000000 17.476767 9.308866 -50.899956 -12.412013 -18.559377 67.288800 0.355603 -11.363626 -8.829545 -0.098471 -2.022946 5.569058 3.099944 4.549464 -20.350324 -6.589547 4.467581 -17.215624 -8.298911 1.155268 -6.917913 6.307043 2.249585 -11.260964 -0.225009 -0.129255 49.465979 -1.648457 0.562665 22.880181 0.000000 0.000000 0.000000 14.500080 18.548836 -38.814433 19.444747 -29.967536 5.251184 8.841830 4.542087 -28.521682 0.000000 0.000000 0.000000 -7.125000 0.000000 0.000000 -23.935834 57.141057 7.406834 0.000000 0.000000 0.000000 5.320952 25.056899 4.663201 -18.662625 -28.997122 -4.866293 -12.344949 12.769933 10.788635 0.000000 0.000000 0.000000 7.125000 0.000000 0.000000 12.977406 40.672531 1.411753
10.240155 16.887422 1.447439 715.699374 -42.496641 -684.034207 0.000000 0.000000 0.000000 -21.751137 -23.082267 -42.784707 3.351758 11.243843 33.106651 0.661135 9.477321 -21.594822 0.112065 -2.158076 -5.942707 0.000000 0.000000 0.000000 12.589308 17.335152 -55.298490 -11.757334 -18.285911 65.217360 0.008545 -10.294565 -14.522572 -0.000100 -0.068387 0.187852 1.531497 3.016022 -20.550689 -4.395155 2.914564 -16.877680 -5.189078 0.751853 -6.809582 7.709496 4.033711 -10.508378 -1.727792 3.840811 46.297969 -1.692747 2.260815 20.218413 0.000000 0.000000 0.000000 10.633846 14.813420 -36.700296 20.363782 -31.078111 5.717950 11.702582 4.195063 -29.043896 0.000000 0.000000 0.000000 -7.125000 0.000000 0.000000 -21.417526 58.229380 7.143764 0.000000 0.000000 0.000000 2.032595 26.269039 5.850881 -16.984685 -26.837503 -4.080435 -10.816802 13.894050 10.009291 0.000000 0.000000 0.000000 7.125000 0.000000 0.000000 14.102331 39.773418 1.859795
9.743055 16.928032 1.911252 716.395543 -32.828369 -683.935815 0.000000 0.000000 0.000000 -19.776975 -25.653353 -39.398814 3.135964 10.911762 31.983014 1.064823 5.122024 -21.979484 0.206908 -2.928593 -8.080004 0.000000 0.000000 0.000000 5.670199 24.847973 -59.321725 -8.514416 -16.482462 54.391361 -0.189378 -9.670381 -16.586843 -0.053273 1.486623 -4.088844 -0.963432 1.319789 -20.527410 -2.105037 1.281590 -16.604610 -1.528513 0.386569 -6.747925 10.483065 7.016680 -8.356692 -3.891987 9.264947 40.089762 -2.112108 4.778859 16.596439 0.000000 0.000000 0.000000 7.013800 12.298502 -36.133481 21.232087 -32.098245 6.172826 11.671471 4.012147 -28.512185 0.000000 0.000000 0.000000 -7.125000 0.000000 0.000000 -21.072974 57.729589 6.765641 0.000000 0.000000 0.000000 -2.023064 27.458924 9.333848 -17.043418 -26.914921 -4.106964 -11.126523 13.368410 10.010654 0.000000 0.000000 0.000000 7.125000 0.000000 0.000000 13.839221 39.799816 1.814187
9.248035 17.068818 2.514269 717.222112 -24.093497 -683.897492 0.000000 0.000000 0.000000 -18.873122 -26.476820 -34.046028 2.277647 9.421291 27.122799 1.158204 0.627638 -20.580449 0.391714 -4.018669 -11.129288 0.000000 0.000000 0.000000 -3.896727 31.701443 -60.546881 -3.840575 -11.941012 35.529221 -0.093190 -10.432566 -16.228393 -0.120880 2.241124 -6.172510 -3.566102 0.147249 -20.322820 -0.599952 0.323190 -16.178866 1.414117 0.306570 -6.427226 15.998634 11.660037 -4.866672 -5.932025 16.193828 32.395432 -2.700520 8.405406 13.670602 0.000000 0.000000 0.000000 4.731735 10.958952 -35.350472 21.396165 -32.287883 6.260235 11.679054 4.207415 -27.293422 0.000000 0.000000 0.000000 -7.125000 0.000000 0.000000 -20.249513 56.594599 5.924153 0.000000 0.000000 0.000000 -5.344339 27.476903 11.497616 -17.406759 -27.390742 -4.272849 -11.281765 12.679325 10.080611 0.000000 0.000000 0.000000 7.125000 0.000000 0.000000 13.723571 39.881326 1.769609
8.744448 17.143424 3.248696 718.229002 -16.608038 -684.151267 0.000000 0.000000 0.000000 -18.507343 -26.694300 -27.761198 1.470842 7.663705 21.697309 1.123458 -3.191471 -19.226389 0.633727 -5.093455 -14.175276 0.000000 0.000000 0.000000 -14.825323 37.331079 -61.318239 -1.420876 -7.538082 21.319557 0.349908 -17.059087 -20.630179 -0.193305 2.831337 -7.809506 -3.292317 1.426763 -19.929021 -2.314822 2.055619 -16.230032 -0.367778 1.129678 -6.689310 21.716510 15.714644 -0.863020 -6.631085 22.059944 26.353121 -2.917574 11.637909 12.073216 0.000000 0.000000 0.000000 7.566042 11.371518 -38.573688 20.261256 -30.955820 5.665125 11.789057 4.572850 -27.218999 0.000000 0.000000 0.000000 -7.125000 0.000000 0.000000 -20.090787 56.547365 5.851832 0.000000 0.000000 0.000000 -3.844837 28.427857 8.555367 -18.105468 -28.292078 -4.599163 -11.604193 12.218494 10.675283 0.000000 0.000000 0.000000 7.125000 0.000000 0.000000 13.587449 40.496169 1.541289
8.170342 17.065545 4.118353 718.155793 -10.073425 -684.271903 0.000000 0.000000 0.000000 -16.668946 -26.396441 -24.860781 1.687289 8.181593 23.267228 1.362183 -6.418533 -20.887689 0.977319 -6.292185 -17.634936 0.000000 0.000000 0.000000 -8.213978 35.218322 -58.645383 -1.579638 -7.929262 22.499390 0.784149 -16.411242 -12.057353 -0.078649 1.808371 -4.976331 -2.468952 2.727809 -20.258614 -3.470179 3.747460 -16.595350 -1.853230 1.903063 -6.842304 24.875115 17.724811 1.766429 -7.743239 25.532798 23.590643 -3.191183 13.429661 11.707787 0.000000 0.000000 0.000000 10.386939 12.316514 -36.856834 16.895222 -26.718933 4.040366 12.448946 7.221807 -27.058004 0.000000 0.000000 0.000000 -7.125000 0.000000 0.000000 -19.322281 56.530885 5.608123 0.000000 0.000000 0.000000 -3.179889 29.391270 6.945045 -18.868258 -29.254588 -4.966253 -11.490463 12.889760 13.263341 0.000000 0.000000 0.000000 7.125000 0.000000 0.000000 14.353328 43.038143 0.710569
7.636068 17.008634 5.063303 716.093940 -5.389706 -684.327698 0.000000 0.000000 0.000000 -12.805266 -24.357992 -26.896536 3.315189 11.185863 32.912415 1.294368 -10.166854 -20.517143 1.778603 -8.388080 -23.899635 0.000000 0.000000 0.000000 4.057768 29.751568 -56.299194 -2.346887 -9.553605 27.543358 0.161854 -8.005351 -6.869071 -0.000389 -0.096383 0.264789 0.273082 3.912009 -20.173992 -3.743559 4.984558 -17.106864 -3.535536 2.287015 -7.210728 24.694722 17.842999 1.588491 -8.193494 25.722554 22.280864 -3.307231 13.451507 11.300105 0.000000 0.000000 0.000000 12.839865 16.029456 -29.789894 15.252417 -24.496571 3.329876 14.689505 9.510295 -28.500378 0.000000 0.000000 0.000000 -7.125000 0.000000 0.000000 -17.951138 58.373634 5.996539 0.000000 0.000000 0.000000 -3.642901 28.510936 9.636854 -20.027370 -30.674914 -5.545464 -12.557532 12.718587 13.266370 0.000000 0.000000 0.000000 7.125000 0.000000 0.000000 13.414008 43.152139 0.623620
7.122979 17.091936 5.990887 714.986716 0.691011 -685.145235 0.000000 0.000000 0.000000 -8.473201 -19.249240 -37.443192 7.694353 15.885718 51.447385 -0.779141 -17.550573 -2.425789 1.534718 -7.819005 -22.166687 0.000000 0.000000 0.000000 12.142814 26.781123 -50.811855 -2.497647 -9.833593 28.439584 -0.105920 -6.323307 -11.379244 -0.013129 -0.740517 2.035080 2.388392 4.033633 -19.593451 -4.069358 4.946715 -17.011761 -5.107381 2.076287 -7.215142 24.249948 17.620998 0.581955 -7.824586 25.014343 21.401838 -3.224419 13.075029 10.898065 0.000000 0.000000 0.000000 15.881640 19.285178 -27.045660 14.763691 -23.815882 3.129959 14.747833 7.348260 -28.821127 0.000000 0.000000 0.000000 -7.125000 0.000000 0.000000 -18.105821 58.691750 6.189468 0.000000 0.000000 0.000000 -3.951279 26.844013 15.794224 -23.844042 -34.998042 -7.617248 -13.553273 9.578078 14.095062 0.000000 0.000000 0.000000 7.125000 0.000000 0.000000 12.754628 44.083125 0.293336
